<svg xmlns="http://www.w3.org/2000/svg" viewBox="0 0 71.48 70.08"><defs><style>.cls-1{fill:#ce757e;}.cls-2,.cls-3{fill:#fff;}.cls-2,.cls-4{opacity:0.6;}.cls-4{fill:#efcad0;}</style></defs><title>Recurso 88</title><g id="Capa_2" data-name="Capa 2"><g id="Capa_2-2" data-name="Capa 2"><rect class="cls-1" width="71.48" height="70.08" rx="16.46"/><path class="cls-2" d="M60.12,14.87a39.84,39.84,0,0,1-2.25,11.59,28.57,28.57,0,0,1-9.48,13.32,1.16,1.16,0,0,0-.49.86,12.59,12.59,0,0,1-2.55,6.06,32.11,32.11,0,0,1-8.07,7.44,44.1,44.1,0,0,1-4.52,2.73,1.23,1.23,0,0,1-1.84-.64,1.33,1.33,0,0,1,.38-1.39,16,16,0,0,0,2-2.77,16.75,16.75,0,0,0,2.35-7.17c0-.18.06-.35-.19-.46a15.06,15.06,0,0,1-4-2.86,24.74,24.74,0,0,1-4.73-5.52l-.16-.29c-.37-.74-.37-.72-1.22-.61a17.67,17.67,0,0,0-9.41,4.34,1.29,1.29,0,0,1-1.43.33A1.21,1.21,0,0,1,13.91,38c.4-.78.83-1.54,1.28-2.28a40.79,40.79,0,0,1,6.09-7.93A17.82,17.82,0,0,1,28,23.34a10.41,10.41,0,0,1,2.28-.49.8.8,0,0,0,.58-.34,28.06,28.06,0,0,1,9.62-8,34.28,34.28,0,0,1,9.14-3.11,39.76,39.76,0,0,1,6.62-.79c.38-.1.78,0,1.16-.08.84,0,1.68,0,2.51,0,.22,0,.28,0,.27.27,0,.71,0,1.42,0,2.13C60.13,13.4,60.13,14.77,60.12,14.87Z"/><path class="cls-2" d="M28.52,47.46a5.51,5.51,0,0,1-1.14,3.45,15.34,15.34,0,0,1-4.58,4A55.29,55.29,0,0,1,13,59.42a1.21,1.21,0,0,1-1.33-.25,1.13,1.13,0,0,1-.31-1.27A47.09,47.09,0,0,1,17,46.29,11.33,11.33,0,0,1,20.59,43a4.82,4.82,0,0,1,5.71.55,5.83,5.83,0,0,1,2.12,3.24C28.47,47,28.49,47.24,28.52,47.46Z"/><path class="cls-2" d="M56.47,13.11l.15,0c1.17-.1,1.15-.1,1.09,1.05a41.91,41.91,0,0,1-1.5,9.38,27.49,27.49,0,0,1-7.93,13.15,24.67,24.67,0,0,1-9.81,5.45,3.43,3.43,0,0,1-3.24-.63,28.7,28.7,0,0,1-6.11-6.19,3.26,3.26,0,0,1-.4-3.09,24.31,24.31,0,0,1,8-12.17,29.42,29.42,0,0,1,12.86-6A41.06,41.06,0,0,1,56.47,13.11Z"/><path class="cls-3" d="M19.07,34.46c2.53-3.61,5.28-7,9.53-8.74.15.19,0,.28-.05.37a24,24,0,0,0-2.39,6.17c0,.18-.05.38-.36.4a18.26,18.26,0,0,0-6.52,1.71Z"/><path class="cls-3" d="M36.26,51.86c.36-.89.69-1.63,1-2.4A17.42,17.42,0,0,0,38.13,45c0-.17,0-.29.24-.34a20.15,20.15,0,0,0,3.39-1A24.8,24.8,0,0,0,45.06,42,9.27,9.27,0,0,1,44,44.37a24.57,24.57,0,0,1-6,6.2C37.47,51,36.92,51.37,36.26,51.86Z"/><path class="cls-3" d="M14.69,56.05a36.68,36.68,0,0,1,4.73-8.79A7.46,7.46,0,0,1,22,45a2.26,2.26,0,0,1,2.47.18c1,.72,1.78,1.58,1.55,2.93a4.49,4.49,0,0,1-1.46,2.35,17.25,17.25,0,0,1-3.63,2.67,47,47,0,0,1-6.07,2.92S14.77,56.06,14.69,56.05Z"/><path class="cls-4" d="M44.6,32.58A6.12,6.12,0,0,1,44,20.35a6.12,6.12,0,1,1,.65,12.23Z"/><path class="cls-3" d="M48,26.46a3.66,3.66,0,0,1-3.63,3.66,3.65,3.65,0,1,1-.08-7.29A3.63,3.63,0,0,1,48,26.46Z"/></g></g></svg>